<svg xmlns="http://www.w3.org/2000/svg" width="155" height="44" viewBox="0 0 155 44">
  <defs>
    <style>
      .cls-1 {
        fill: #730345;
      }

      .cls-2 {
        fill: #f1ece6;
      }
    </style>
  </defs>
  <g id="add-filter-button" transform="translate(-69 -308)">
    <rect id="Rectangle_72" data-name="Rectangle 72" className="cls-1" width="155" height="44" rx="22" transform="translate(69 308)"/>
    <path id="Path_118" data-name="Path 118" className="cls-2" d="M-42.44-12.07h1.8L-35.946,0h-2.006l-1.275-3.281h-4.658L-45.144,0h-2.023ZM-39.6-4.692-41.54-9.979l-2.006,5.287ZM-34.451,0V-12.07h4.284a6.113,6.113,0,0,1,3.264.807,5.092,5.092,0,0,1,1.963,2.176,6.942,6.942,0,0,1,.654,3.035,6.717,6.717,0,0,1-.722,3.2A5.135,5.135,0,0,1-27.056-.748,6.227,6.227,0,0,1-30.167,0Zm8.228-6.052A5.162,5.162,0,0,0-26.69-8.3a3.6,3.6,0,0,0-1.343-1.53,3.919,3.919,0,0,0-2.134-.553h-2.38v8.7h2.38a3.819,3.819,0,0,0,2.151-.578,3.706,3.706,0,0,0,1.334-1.564A5.216,5.216,0,0,0-26.222-6.052ZM-22.278,0V-12.07h4.284a6.113,6.113,0,0,1,3.264.807,5.092,5.092,0,0,1,1.964,2.176,6.942,6.942,0,0,1,.654,3.035,6.717,6.717,0,0,1-.722,3.2A5.135,5.135,0,0,1-14.884-.748,6.227,6.227,0,0,1-17.995,0Zm8.228-6.052A5.162,5.162,0,0,0-14.518-8.3a3.6,3.6,0,0,0-1.343-1.53,3.919,3.919,0,0,0-2.134-.553h-2.38v8.7h2.38a3.819,3.819,0,0,0,2.151-.578A3.706,3.706,0,0,0-14.51-3.825,5.216,5.216,0,0,0-14.05-6.052ZM-5.907,0V-12.07H2.134v1.683H-4v3.6H1.131V-5.2H-4V0ZM3.936,0V-12.07h1.9V0ZM8.56,0V-12.07h1.9V-1.683h6.477V0ZM25.542-10.387H21.531V0H19.61V-10.387H15.581V-12.07h9.962Zm9.894,8.7V0H27.158V-12.07h8.126v1.683H29.062v3.434h5.389v1.581H29.062v3.689ZM37.409,0V-12.07h5.253a3.3,3.3,0,0,1,1.5.34,3.923,3.923,0,0,1,1.181.9,4.26,4.26,0,0,1,.782,1.258A3.793,3.793,0,0,1,46.4-8.143a4.124,4.124,0,0,1-.289,1.53,3.6,3.6,0,0,1-.824,1.258,3.2,3.2,0,0,1-1.25.765L46.878,0H44.736L42.118-4.2H39.313V0Zm1.9-5.882h3.332a1.517,1.517,0,0,0,.935-.306,2.1,2.1,0,0,0,.646-.825,2.677,2.677,0,0,0,.238-1.13,2.332,2.332,0,0,0-.272-1.13,2.328,2.328,0,0,0-.705-.808,1.6,1.6,0,0,0-.944-.306h-3.23Z" transform="translate(147 336)"/>
  </g>
</svg>
