<svg xmlns="http://www.w3.org/2000/svg" width="222" height="44" viewBox="0 0 222 44">
  <g id="all-products" transform="translate(-69 -227)">
    <rect id="Rectangle_81" data-name="Rectangle 81" width="222" height="44" rx="22" transform="translate(69 227)" fill="#730345"/>
    <path id="Path_120" data-name="Path 120" d="M-62.127-12.78h1.908L-55.251,0h-2.124l-1.35-3.474h-4.932L-64.989,0h-2.142Zm3.006,7.812-2.052-5.6-2.124,5.6ZM-53.667,0V-12.78h2.016v11h6.858V0Zm10.512,0V-12.78h2.016v11h6.858V0Zm14.418,0V-12.78h5.364a3.492,3.492,0,0,1,1.584.36,4.267,4.267,0,0,1,1.26.954,4.277,4.277,0,0,1,.828,1.332,4.126,4.126,0,0,1,.288,1.512A4.5,4.5,0,0,1-19.89-6.6,3.993,3.993,0,0,1-21.24-5.04a3.513,3.513,0,0,1-2.025.594h-3.456V0Zm2.016-6.228h3.33a1.665,1.665,0,0,0,1.008-.315,2.1,2.1,0,0,0,.675-.855,2.952,2.952,0,0,0,.243-1.224,2.6,2.6,0,0,0-.288-1.242A2.209,2.209,0,0,0-22.5-10.7a1.8,1.8,0,0,0-1-.3h-3.222ZM-17.523,0V-12.78h5.562a3.492,3.492,0,0,1,1.584.36,4.153,4.153,0,0,1,1.251.954A4.511,4.511,0,0,1-8.3-10.134,4.016,4.016,0,0,1-8-8.622,4.367,4.367,0,0,1-8.307-7,3.808,3.808,0,0,1-9.18-5.67a3.39,3.39,0,0,1-1.323.81L-7.5,0H-9.765l-2.772-4.446h-2.97V0Zm2.016-6.228h3.528a1.606,1.606,0,0,0,.99-.324,2.226,2.226,0,0,0,.684-.873,2.835,2.835,0,0,0,.252-1.2,2.47,2.47,0,0,0-.288-1.2,2.465,2.465,0,0,0-.747-.855,1.7,1.7,0,0,0-1-.324h-3.42ZM-.351.09a5.67,5.67,0,0,1-2.5-.54A6,6,0,0,1-4.779-1.917,6.837,6.837,0,0,1-6.03-4.005,6.664,6.664,0,0,1-6.471-6.39,6.463,6.463,0,0,1-6-8.829a6.85,6.85,0,0,1,1.3-2.07,6.187,6.187,0,0,1,1.953-1.44A5.641,5.641,0,0,1-.315-12.87a5.532,5.532,0,0,1,2.493.558A6.036,6.036,0,0,1,4.1-10.818,7.082,7.082,0,0,1,5.346-8.73a6.544,6.544,0,0,1,.441,2.358,6.574,6.574,0,0,1-.459,2.439,6.71,6.71,0,0,1-1.287,2.07A6.071,6.071,0,0,1,2.088-.432,5.723,5.723,0,0,1-.351.09ZM-4.419-6.39a5.381,5.381,0,0,0,.288,1.746,4.859,4.859,0,0,0,.819,1.5A3.85,3.85,0,0,0-2.025-2.106a3.731,3.731,0,0,0,1.692.378,3.669,3.669,0,0,0,1.728-.4A3.773,3.773,0,0,0,2.664-3.195a5.03,5.03,0,0,0,.783-1.512,5.453,5.453,0,0,0,.27-1.683,5.457,5.457,0,0,0-.279-1.737,4.641,4.641,0,0,0-.819-1.494,3.972,3.972,0,0,0-1.287-1.035,3.635,3.635,0,0,0-1.665-.378,3.669,3.669,0,0,0-1.728.4A3.909,3.909,0,0,0-3.339-9.576a4.978,4.978,0,0,0-.8,1.494A5.265,5.265,0,0,0-4.419-6.39ZM7.875,0V-12.78h4.536a6.473,6.473,0,0,1,3.456.855,5.391,5.391,0,0,1,2.079,2.3,7.351,7.351,0,0,1,.693,3.213,7.112,7.112,0,0,1-.765,3.384A5.437,5.437,0,0,1,15.705-.792,6.594,6.594,0,0,1,12.411,0Zm8.712-6.408a5.466,5.466,0,0,0-.5-2.385,3.815,3.815,0,0,0-1.422-1.62A4.149,4.149,0,0,0,12.411-11H9.891v9.216h2.52a4.043,4.043,0,0,0,2.277-.612A3.924,3.924,0,0,0,16.1-4.05,5.523,5.523,0,0,0,16.587-6.408Zm9.5,6.5a5.777,5.777,0,0,1-2.583-.522,4.463,4.463,0,0,1-1.692-1.422,6.167,6.167,0,0,1-.936-2.052,9.552,9.552,0,0,1-.3-2.394v-6.48H22.6V-6.3a7.9,7.9,0,0,0,.18,1.7,4.742,4.742,0,0,0,.576,1.467,2.883,2.883,0,0,0,1.071,1.026,3.366,3.366,0,0,0,1.665.378,3.342,3.342,0,0,0,1.683-.387,2.861,2.861,0,0,0,1.062-1.044A5.011,5.011,0,0,0,29.4-4.626a7.694,7.694,0,0,0,.18-1.674v-6.48h2.034V-6.3A9.417,9.417,0,0,1,31.3-3.825a5.922,5.922,0,0,1-.972,2.034,4.581,4.581,0,0,1-1.7,1.377A5.8,5.8,0,0,1,26.091.09Zm7.4-6.57a6.6,6.6,0,0,1,.414-2.3,6.608,6.608,0,0,1,1.215-2.052A5.9,5.9,0,0,1,37.071-12.3a5.994,5.994,0,0,1,2.61-.549,5.546,5.546,0,0,1,2.988.783,4.956,4.956,0,0,1,1.872,2.007L42.957-9a3.405,3.405,0,0,0-.909-1.224,3.255,3.255,0,0,0-1.188-.63,4.6,4.6,0,0,0-1.251-.18,3.681,3.681,0,0,0-1.764.4,3.915,3.915,0,0,0-1.269,1.071A4.783,4.783,0,0,0,35.8-8.064a5.482,5.482,0,0,0-.261,1.656,5.223,5.223,0,0,0,.306,1.773A4.92,4.92,0,0,0,36.7-3.123a4.038,4.038,0,0,0,1.305,1.035,3.651,3.651,0,0,0,1.656.378,4.139,4.139,0,0,0,1.278-.216A3.822,3.822,0,0,0,42.174-2.6a3.1,3.1,0,0,0,.891-1.215l1.674.954a4.01,4.01,0,0,1-1.233,1.62A6.009,6.009,0,0,1,41.634-.234a6.485,6.485,0,0,1-2.043.342,5.365,5.365,0,0,1-2.466-.567A6.226,6.226,0,0,1,35.2-1.971,7.162,7.162,0,0,1,33.939-4.1,6.641,6.641,0,0,1,33.489-6.48ZM55.989-11H51.741V0H49.707V-11H45.441V-12.78H55.989Zm9.27,1.224a2.765,2.765,0,0,0-.522-.423,5.071,5.071,0,0,0-.81-.423,6.2,6.2,0,0,0-1.008-.324A4.9,4.9,0,0,0,61.8-11.07a3.071,3.071,0,0,0-1.872.468,1.54,1.54,0,0,0-.612,1.3,1.321,1.321,0,0,0,.342.963,2.581,2.581,0,0,0,1.044.585q.7.234,1.764.5a12.885,12.885,0,0,1,2.25.729A3.474,3.474,0,0,1,66.177-5.4a3.111,3.111,0,0,1,.5,1.854,3.627,3.627,0,0,1-.36,1.674A3.037,3.037,0,0,1,65.313-.729a4.552,4.552,0,0,1-1.494.648A7.633,7.633,0,0,1,62,.126a9.237,9.237,0,0,1-1.9-.2,8.655,8.655,0,0,1-1.8-.585A7.833,7.833,0,0,1,56.727-1.6l.918-1.728a3.979,3.979,0,0,0,.675.513,7.394,7.394,0,0,0,1.026.531,8.183,8.183,0,0,0,1.278.423,5.876,5.876,0,0,0,1.413.171,3.344,3.344,0,0,0,1.845-.423,1.37,1.37,0,0,0,.639-1.215,1.349,1.349,0,0,0-.414-1.035A3.328,3.328,0,0,0,62.9-5.022q-.792-.27-1.89-.54a12.563,12.563,0,0,1-2.106-.747,3.052,3.052,0,0,1-1.269-1.044,2.9,2.9,0,0,1-.423-1.629,3.622,3.622,0,0,1,.612-2.133,3.749,3.749,0,0,1,1.665-1.314,6.074,6.074,0,0,1,2.367-.441,6.885,6.885,0,0,1,1.638.189,7.388,7.388,0,0,1,1.449.513,7.534,7.534,0,0,1,1.233.738Z" transform="translate(180 256)" fill="#f1ece6"/>
  </g>
</svg>
