<svg xmlns="http://www.w3.org/2000/svg" xmlns:xlink="http://www.w3.org/1999/xlink" width="230" height="78" viewBox="0 0 230 78">
  <defs>
    <filter id="Rectangle_73" x="0" y="0" width="230" height="78" filterUnits="userSpaceOnUse">
      <feOffset dy="3" input="SourceAlpha"/>
      <feGaussianBlur stdDeviation="3" result="blur"/>
      <feFlood flood-opacity="0.161"/>
      <feComposite operator="in" in2="blur"/>
      <feComposite in="SourceGraphic"/>
    </filter>
  </defs>
  <g id="cart-button" transform="translate(-75 -203)">
    <g transform="matrix(1, 0, 0, 1, 75, 203)" filter="url(#Rectangle_73)">
      <g id="Rectangle_73-2" data-name="Rectangle 73" transform="translate(9 6)" fill="none" stroke="#ad0e6c" stroke-width="1">
        <rect width="212" height="60" rx="9" stroke="none"/>
        <rect x="0.5" y="0.5" width="211" height="59" rx="8.5" fill="none"/>
      </g>
    </g>
    <path id="Path_118" data-name="Path 118" d="M4.56-11.36h1.7L10.672,0H8.784l-1.2-3.088H3.2L2.016,0H.112ZM7.232-4.416,5.408-9.392,3.52-4.416ZM12.08,0V-11.36h4.032a5.754,5.754,0,0,1,3.072.76,4.792,4.792,0,0,1,1.848,2.048A6.534,6.534,0,0,1,21.648-5.7a6.322,6.322,0,0,1-.68,3.008A4.833,4.833,0,0,1,19.04-.7a5.861,5.861,0,0,1-2.928.7Zm7.744-5.7a4.858,4.858,0,0,0-.44-2.12,3.391,3.391,0,0,0-1.264-1.44,3.688,3.688,0,0,0-2.008-.52h-2.24v8.192h2.24a3.594,3.594,0,0,0,2.024-.544A3.488,3.488,0,0,0,19.392-3.6,4.909,4.909,0,0,0,19.824-5.7ZM23.536,0V-11.36h4.032a5.754,5.754,0,0,1,3.072.76,4.792,4.792,0,0,1,1.848,2.048A6.534,6.534,0,0,1,33.1-5.7a6.322,6.322,0,0,1-.68,3.008A4.833,4.833,0,0,1,30.5-.7a5.861,5.861,0,0,1-2.928.7ZM31.28-5.7a4.858,4.858,0,0,0-.44-2.12,3.391,3.391,0,0,0-1.264-1.44,3.688,3.688,0,0,0-2.008-.52h-2.24v8.192h2.24a3.594,3.594,0,0,0,2.024-.544A3.488,3.488,0,0,0,30.848-3.6,4.909,4.909,0,0,0,31.28-5.7ZM46.8-9.776H43.024V0H41.216V-9.776H37.424V-11.36H46.8ZM52.736.08A5.04,5.04,0,0,1,50.512-.4,5.336,5.336,0,0,1,48.8-1.7,6.077,6.077,0,0,1,47.688-3.56,5.923,5.923,0,0,1,47.3-5.68a5.745,5.745,0,0,1,.416-2.168,6.089,6.089,0,0,1,1.152-1.84,5.5,5.5,0,0,1,1.736-1.28,5.015,5.015,0,0,1,2.168-.472,4.918,4.918,0,0,1,2.216.5A5.366,5.366,0,0,1,56.7-9.616,6.3,6.3,0,0,1,57.8-7.76a5.817,5.817,0,0,1,.392,2.1A5.843,5.843,0,0,1,57.784-3.5a5.964,5.964,0,0,1-1.144,1.84A5.4,5.4,0,0,1,54.9-.384,5.087,5.087,0,0,1,52.736.08ZM49.12-5.68a4.783,4.783,0,0,0,.256,1.552A4.319,4.319,0,0,0,50.1-2.792a3.422,3.422,0,0,0,1.144.92,3.316,3.316,0,0,0,1.5.336,3.261,3.261,0,0,0,1.536-.352,3.354,3.354,0,0,0,1.128-.952,4.471,4.471,0,0,0,.7-1.344,4.847,4.847,0,0,0,.24-1.5A4.85,4.85,0,0,0,56.1-7.224a4.125,4.125,0,0,0-.728-1.328,3.531,3.531,0,0,0-1.144-.92,3.231,3.231,0,0,0-1.48-.336,3.261,3.261,0,0,0-1.536.352,3.475,3.475,0,0,0-1.136.944,4.425,4.425,0,0,0-.712,1.328A4.68,4.68,0,0,0,49.12-5.68Zm14.16-.08a5.864,5.864,0,0,1,.368-2.04,5.873,5.873,0,0,1,1.08-1.824,5.246,5.246,0,0,1,1.736-1.312,5.328,5.328,0,0,1,2.32-.488,4.93,4.93,0,0,1,2.656.7A4.406,4.406,0,0,1,73.1-8.944L71.7-8a3.027,3.027,0,0,0-.808-1.088,2.893,2.893,0,0,0-1.056-.56,4.09,4.09,0,0,0-1.112-.16,3.272,3.272,0,0,0-1.568.36,3.48,3.48,0,0,0-1.128.952,4.251,4.251,0,0,0-.688,1.328A4.873,4.873,0,0,0,65.1-5.7a4.642,4.642,0,0,0,.272,1.576,4.373,4.373,0,0,0,.76,1.344,3.59,3.59,0,0,0,1.16.92,3.245,3.245,0,0,0,1.472.336A3.679,3.679,0,0,0,69.9-1.712a3.4,3.4,0,0,0,1.1-.6,2.754,2.754,0,0,0,.792-1.08l1.488.848a3.564,3.564,0,0,1-1.1,1.44,5.341,5.341,0,0,1-1.664.9A5.764,5.764,0,0,1,68.7.1a4.769,4.769,0,0,1-2.192-.5A5.534,5.534,0,0,1,64.8-1.752,6.366,6.366,0,0,1,63.68-3.64,5.9,5.9,0,0,1,63.28-5.76Zm14.784-5.6h1.7L84.176,0H82.288l-1.2-3.088H76.7L75.52,0h-1.9Zm2.672,6.944L78.912-9.392,77.024-4.416ZM85.584,0V-11.36h4.944a3.1,3.1,0,0,1,1.408.32,3.692,3.692,0,0,1,1.112.848,4.009,4.009,0,0,1,.736,1.184,3.57,3.57,0,0,1,.264,1.344,3.881,3.881,0,0,1-.272,1.44A3.385,3.385,0,0,1,93-5.04a3.014,3.014,0,0,1-1.176.72L94.5,0H92.48L90.016-3.952h-2.64V0Zm1.792-5.536h3.136a1.428,1.428,0,0,0,.88-.288A1.979,1.979,0,0,0,92-6.6a2.52,2.52,0,0,0,.224-1.064,2.2,2.2,0,0,0-.256-1.064,2.191,2.191,0,0,0-.664-.76,1.508,1.508,0,0,0-.888-.288h-3.04Zm17.008-4.24h-3.776V0H98.8V-9.776H95.008V-11.36h9.376Z" transform="translate(138 245)" fill="#ad0e6c"/>
  </g>
</svg>
