<svg xmlns="http://www.w3.org/2000/svg" xmlns:xlink="http://www.w3.org/1999/xlink" width="230" height="78" viewBox="0 0 230 78">
  <defs>
    <filter id="Rectangle_72" x="0" y="0" width="230" height="78" filterUnits="userSpaceOnUse">
      <feOffset dy="3" input="SourceAlpha"/>
      <feGaussianBlur stdDeviation="3" result="blur"/>
      <feFlood flood-opacity="0.161"/>
      <feComposite operator="in" in2="blur"/>
      <feComposite in="SourceGraphic"/>
    </filter>
    <filter id="Rectangle_72-2" x="0" y="0" width="230" height="78" filterUnits="userSpaceOnUse">
      <feOffset dy="3" input="SourceAlpha"/>
      <feGaussianBlur stdDeviation="3" result="blur-2"/>
      <feFlood flood-opacity="0.161" result="color"/>
      <feComposite operator="out" in="SourceGraphic" in2="blur-2"/>
      <feComposite operator="in" in="color"/>
      <feComposite operator="in" in2="SourceGraphic"/>
    </filter>
  </defs>
  <g id="fav-button-hover" transform="translate(-75 -123)">
    <g data-type="innerShadowGroup">
      <g transform="matrix(1, 0, 0, 1, 75, 123)" filter="url(#Rectangle_72)">
        <rect id="Rectangle_72-3" data-name="Rectangle 72" width="212" height="60" rx="9" transform="translate(9 6)" fill="#ad0e6c"/>
      </g>
      <g transform="matrix(1, 0, 0, 1, 75, 123)" filter="url(#Rectangle_72-2)">
        <rect id="Rectangle_72-4" data-name="Rectangle 72" width="212" height="60" rx="9" transform="translate(9 6)" fill="#fff"/>
      </g>
    </g>
    <path id="Path_121" data-name="Path 121" d="M4.56-11.36h1.7L10.672,0H8.784l-1.2-3.088H3.2L2.016,0H.112ZM7.232-4.416,5.408-9.392,3.52-4.416ZM12.08,0V-11.36h4.032a5.754,5.754,0,0,1,3.072.76,4.792,4.792,0,0,1,1.848,2.048A6.534,6.534,0,0,1,21.648-5.7a6.322,6.322,0,0,1-.68,3.008A4.833,4.833,0,0,1,19.04-.7a5.861,5.861,0,0,1-2.928.7Zm7.744-5.7a4.858,4.858,0,0,0-.44-2.12,3.391,3.391,0,0,0-1.264-1.44,3.688,3.688,0,0,0-2.008-.52h-2.24v8.192h2.24a3.594,3.594,0,0,0,2.024-.544A3.488,3.488,0,0,0,19.392-3.6,4.909,4.909,0,0,0,19.824-5.7ZM23.536,0V-11.36h4.032a5.754,5.754,0,0,1,3.072.76,4.792,4.792,0,0,1,1.848,2.048A6.534,6.534,0,0,1,33.1-5.7a6.322,6.322,0,0,1-.68,3.008A4.833,4.833,0,0,1,30.5-.7a5.861,5.861,0,0,1-2.928.7ZM31.28-5.7a4.858,4.858,0,0,0-.44-2.12,3.391,3.391,0,0,0-1.264-1.44,3.688,3.688,0,0,0-2.008-.52h-2.24v8.192h2.24a3.594,3.594,0,0,0,2.024-.544A3.488,3.488,0,0,0,30.848-3.6,4.909,4.909,0,0,0,31.28-5.7ZM46.8-9.776H43.024V0H41.216V-9.776H37.424V-11.36H46.8ZM52.736.08A5.04,5.04,0,0,1,50.512-.4,5.336,5.336,0,0,1,48.8-1.7,6.077,6.077,0,0,1,47.688-3.56,5.923,5.923,0,0,1,47.3-5.68a5.745,5.745,0,0,1,.416-2.168,6.089,6.089,0,0,1,1.152-1.84,5.5,5.5,0,0,1,1.736-1.28,5.015,5.015,0,0,1,2.168-.472,4.918,4.918,0,0,1,2.216.5A5.366,5.366,0,0,1,56.7-9.616,6.3,6.3,0,0,1,57.8-7.76a5.817,5.817,0,0,1,.392,2.1A5.843,5.843,0,0,1,57.784-3.5a5.964,5.964,0,0,1-1.144,1.84A5.4,5.4,0,0,1,54.9-.384,5.087,5.087,0,0,1,52.736.08ZM49.12-5.68a4.783,4.783,0,0,0,.256,1.552A4.319,4.319,0,0,0,50.1-2.792a3.422,3.422,0,0,0,1.144.92,3.316,3.316,0,0,0,1.5.336,3.261,3.261,0,0,0,1.536-.352,3.354,3.354,0,0,0,1.128-.952,4.471,4.471,0,0,0,.7-1.344,4.847,4.847,0,0,0,.24-1.5A4.85,4.85,0,0,0,56.1-7.224a4.125,4.125,0,0,0-.728-1.328,3.531,3.531,0,0,0-1.144-.92,3.231,3.231,0,0,0-1.48-.336,3.261,3.261,0,0,0-1.536.352,3.475,3.475,0,0,0-1.136.944,4.425,4.425,0,0,0-.712,1.328A4.68,4.68,0,0,0,49.12-5.68ZM64,0V-11.36h7.568v1.584H65.792v3.392h4.832V-4.9H65.792V0ZM75.7-11.36h1.7L81.808,0H79.92l-1.2-3.088H74.336L73.152,0h-1.9Zm2.672,6.944L76.544-9.392,74.656-4.416Zm4.64-6.944,3.424,9.168L89.84-11.36h1.9L87.28,0h-1.7L81.1-11.36ZM97.424.08A5.04,5.04,0,0,1,95.2-.4a5.336,5.336,0,0,1-1.712-1.3A6.077,6.077,0,0,1,92.376-3.56a5.923,5.923,0,0,1-.392-2.12A5.744,5.744,0,0,1,92.4-7.848a6.089,6.089,0,0,1,1.152-1.84,5.5,5.5,0,0,1,1.736-1.28,5.015,5.015,0,0,1,2.168-.472,4.918,4.918,0,0,1,2.216.5,5.366,5.366,0,0,1,1.712,1.328,6.3,6.3,0,0,1,1.1,1.856,5.817,5.817,0,0,1,.392,2.1,5.843,5.843,0,0,1-.408,2.168,5.964,5.964,0,0,1-1.144,1.84A5.4,5.4,0,0,1,99.592-.384,5.087,5.087,0,0,1,97.424.08ZM93.808-5.68a4.784,4.784,0,0,0,.256,1.552,4.319,4.319,0,0,0,.728,1.336,3.422,3.422,0,0,0,1.144.92,3.316,3.316,0,0,0,1.5.336,3.261,3.261,0,0,0,1.536-.352A3.354,3.354,0,0,0,100.1-2.84a4.471,4.471,0,0,0,.7-1.344,4.847,4.847,0,0,0,.24-1.5,4.85,4.85,0,0,0-.248-1.544,4.125,4.125,0,0,0-.728-1.328,3.531,3.531,0,0,0-1.144-.92,3.231,3.231,0,0,0-1.48-.336,3.261,3.261,0,0,0-1.536.352,3.475,3.475,0,0,0-1.136.944,4.425,4.425,0,0,0-.712,1.328A4.68,4.68,0,0,0,93.808-5.68ZM109.472.08a5.136,5.136,0,0,1-2.3-.464,3.967,3.967,0,0,1-1.5-1.264,5.482,5.482,0,0,1-.832-1.824,8.49,8.49,0,0,1-.264-2.128v-5.76h1.792V-5.6a7.025,7.025,0,0,0,.16,1.512,4.215,4.215,0,0,0,.512,1.3,2.563,2.563,0,0,0,.952.912,2.992,2.992,0,0,0,1.48.336,2.971,2.971,0,0,0,1.5-.344,2.543,2.543,0,0,0,.944-.928,4.454,4.454,0,0,0,.5-1.3,6.839,6.839,0,0,0,.16-1.488v-5.76h1.808V-5.6a8.371,8.371,0,0,1-.28,2.2,5.264,5.264,0,0,1-.864,1.808,4.072,4.072,0,0,1-1.512,1.224A5.156,5.156,0,0,1,109.472.08Zm7.3-.08V-11.36h4.944a3.1,3.1,0,0,1,1.408.32,3.692,3.692,0,0,1,1.112.848,4.01,4.01,0,0,1,.736,1.184,3.57,3.57,0,0,1,.264,1.344,3.881,3.881,0,0,1-.272,1.44,3.385,3.385,0,0,1-.776,1.184,3.014,3.014,0,0,1-1.176.72L125.68,0h-2.016L121.2-3.952h-2.64V0Zm1.792-5.536H121.7a1.428,1.428,0,0,0,.88-.288,1.979,1.979,0,0,0,.608-.776,2.52,2.52,0,0,0,.224-1.064,2.2,2.2,0,0,0-.256-1.064,2.191,2.191,0,0,0-.664-.76,1.508,1.508,0,0,0-.888-.288h-3.04ZM127.344,0V-11.36h1.792V0Zm12.688-9.776h-3.776V0h-1.808V-9.776h-3.792V-11.36h9.376Zm9.312,8.192V0h-7.792V-11.36H149.2v1.584h-5.856v3.232h5.072v1.488h-5.072v3.472Zm8.576-7.1a2.458,2.458,0,0,0-.464-.376,4.508,4.508,0,0,0-.72-.376,5.508,5.508,0,0,0-.9-.288,4.351,4.351,0,0,0-.992-.112,2.73,2.73,0,0,0-1.664.416,1.369,1.369,0,0,0-.544,1.152,1.174,1.174,0,0,0,.3.856,2.294,2.294,0,0,0,.928.52q.624.208,1.568.448a11.454,11.454,0,0,1,2,.648,3.088,3.088,0,0,1,1.3,1,2.766,2.766,0,0,1,.448,1.648,3.224,3.224,0,0,1-.32,1.488,2.7,2.7,0,0,1-.9,1.016,4.046,4.046,0,0,1-1.328.576,6.785,6.785,0,0,1-1.616.184,8.21,8.21,0,0,1-1.688-.176,7.693,7.693,0,0,1-1.6-.52,6.962,6.962,0,0,1-1.4-.84l.816-1.536a3.537,3.537,0,0,0,.6.456,6.573,6.573,0,0,0,.912.472,7.273,7.273,0,0,0,1.136.376,5.223,5.223,0,0,0,1.256.152,2.973,2.973,0,0,0,1.64-.376,1.218,1.218,0,0,0,.568-1.08,1.2,1.2,0,0,0-.368-.92,2.958,2.958,0,0,0-1.072-.584q-.7-.24-1.68-.48a11.167,11.167,0,0,1-1.872-.664,2.713,2.713,0,0,1-1.128-.928,2.574,2.574,0,0,1-.376-1.448,3.22,3.22,0,0,1,.544-1.9,3.332,3.332,0,0,1,1.48-1.168,5.4,5.4,0,0,1,2.1-.392,6.12,6.12,0,0,1,1.456.168,6.567,6.567,0,0,1,1.288.456,6.7,6.7,0,0,1,1.1.656Z" transform="translate(110 165)" fill="#fff"/>
  </g>
</svg>
