<svg xmlns="http://www.w3.org/2000/svg" id="learn-more" width="216" height="59" viewBox="0 0 216 59">
  <defs>
    <style>
      .cls-1, .cls-3 {
        fill: none;
      }

      .cls-1 {
        stroke: #ff9414;
      }

      .cls-2 {
        stroke: none;
      }
    </style>
  </defs>
  <g id="Rectangle_66" data-name="Rectangle 66" class="cls-1">
    <rect class="cls-2" width="216" height="59"/>
    <rect class="cls-3" x="0.5" y="0.5" width="215" height="58"/>
  </g>
  <path id="Path_142" data-name="Path 142" d="M1.76,0V-15.62H4.224V-2.178h8.382V0ZM19.4.22a6.041,6.041,0,0,1-2.431-.473,5.754,5.754,0,0,1-1.881-1.3,5.866,5.866,0,0,1-1.221-1.892,6.046,6.046,0,0,1-.429-2.277A6.058,6.058,0,0,1,14.19-8.7a5.836,5.836,0,0,1,2.09-2.178,5.886,5.886,0,0,1,3.146-.825,5.717,5.717,0,0,1,3.113.825,5.77,5.77,0,0,1,2.035,2.167A5.964,5.964,0,0,1,25.3-5.83q0,.264-.022.495t-.044.385H16.016a3.613,3.613,0,0,0,.561,1.771,3.565,3.565,0,0,0,1.265,1.188,3.337,3.337,0,0,0,1.65.429,3.72,3.72,0,0,0,1.837-.484,2.5,2.5,0,0,0,1.177-1.276l2.068.594a4.416,4.416,0,0,1-1.133,1.507A5.654,5.654,0,0,1,21.648-.165,6.381,6.381,0,0,1,19.4.22ZM15.95-6.556H22.9a3.579,3.579,0,0,0-.561-1.749,3.6,3.6,0,0,0-1.254-1.188A3.361,3.361,0,0,0,19.4-9.922a3.318,3.318,0,0,0-1.661.429A3.5,3.5,0,0,0,16.5-8.305,3.647,3.647,0,0,0,15.95-6.556Zm10.494,3.19a3.092,3.092,0,0,1,.627-1.925A4.029,4.029,0,0,1,28.8-6.567a6.69,6.69,0,0,1,2.552-.451,11.584,11.584,0,0,1,1.573.11,6.178,6.178,0,0,1,1.419.352v-.726a2.47,2.47,0,0,0-.726-1.892,2.94,2.94,0,0,0-2.09-.682,4.9,4.9,0,0,0-1.826.341,11.03,11.03,0,0,0-1.826.957l-.814-1.628a9.208,9.208,0,0,1,2.3-1.144A7.842,7.842,0,0,1,31.79-11.7a5.181,5.181,0,0,1,3.641,1.221,4.466,4.466,0,0,1,1.331,3.465v4.29a.954.954,0,0,0,.143.594.662.662,0,0,0,.5.2V0a5.311,5.311,0,0,1-.594.088q-.264.022-.44.022A1.638,1.638,0,0,1,35.2-.264a1.441,1.441,0,0,1-.462-.88l-.066-.66a4.959,4.959,0,0,1-1.914,1.5A5.659,5.659,0,0,1,30.4.22a4.339,4.339,0,0,1-2.046-.473A3.57,3.57,0,0,1,26.95-1.54,3.388,3.388,0,0,1,26.444-3.366Zm7.326.7a2.831,2.831,0,0,0,.418-.572,1.1,1.1,0,0,0,.154-.506V-5.06a6.779,6.779,0,0,0-1.3-.363A7.672,7.672,0,0,0,31.7-5.544a3.922,3.922,0,0,0-2.145.528,1.641,1.641,0,0,0-.825,1.452,1.865,1.865,0,0,0,.275.968,2.053,2.053,0,0,0,.792.748,2.631,2.631,0,0,0,1.287.286A3.848,3.848,0,0,0,32.6-1.87,3.274,3.274,0,0,0,33.77-2.662ZM46.156-9.416a5.151,5.151,0,0,0-2.5.638A3.472,3.472,0,0,0,42.108-7.04V0h-2.42V-11.506h2.244v2.574a5.214,5.214,0,0,1,1.562-1.9,3.792,3.792,0,0,1,2.046-.781H45.9a1.3,1.3,0,0,1,.253.022ZM58.234,0h-2.42V-6.446A4.209,4.209,0,0,0,55.3-8.8a1.738,1.738,0,0,0-1.529-.748,3.058,3.058,0,0,0-1.4.352,4.312,4.312,0,0,0-1.243.957,3.625,3.625,0,0,0-.792,1.4V0h-2.42V-11.506h2.2V-9.2a4.548,4.548,0,0,1,1.155-1.331,5.449,5.449,0,0,1,1.617-.869A5.883,5.883,0,0,1,54.8-11.7a3.473,3.473,0,0,1,1.7.374,2.775,2.775,0,0,1,1.056,1.023,4.311,4.311,0,0,1,.528,1.5,10.767,10.767,0,0,1,.143,1.793Zm25.85,0h-2.42V-6.446A4.139,4.139,0,0,0,81.136-8.8a1.766,1.766,0,0,0-1.54-.748,2.807,2.807,0,0,0-1.881.759A4.047,4.047,0,0,0,76.494-6.82V0h-2.42V-6.446A4.139,4.139,0,0,0,73.546-8.8a1.745,1.745,0,0,0-1.518-.748,2.83,2.83,0,0,0-1.881.748A4.122,4.122,0,0,0,68.9-6.842V0h-2.42V-11.506h2.2V-9.2a4.862,4.862,0,0,1,1.793-1.859,4.944,4.944,0,0,1,2.541-.649,3.232,3.232,0,0,1,2.255.748A3.2,3.2,0,0,1,76.3-9.086a5.477,5.477,0,0,1,1.837-1.947,4.662,4.662,0,0,1,2.5-.671,3.487,3.487,0,0,1,1.694.374,2.676,2.676,0,0,1,1.056,1.023,4.82,4.82,0,0,1,.539,1.5,9.366,9.366,0,0,1,.165,1.793Zm7.964.22a6.02,6.02,0,0,1-2.442-.473,5.583,5.583,0,0,1-1.859-1.309,5.933,5.933,0,0,1-1.2-1.9,6.186,6.186,0,0,1-.418-2.277,6.273,6.273,0,0,1,.418-2.288,5.778,5.778,0,0,1,1.2-1.9,5.632,5.632,0,0,1,1.87-1.3,6.041,6.041,0,0,1,2.431-.473,6.041,6.041,0,0,1,2.431.473,5.632,5.632,0,0,1,1.87,1.3,5.778,5.778,0,0,1,1.2,1.9,6.273,6.273,0,0,1,.418,2.288,6.186,6.186,0,0,1-.418,2.277,5.933,5.933,0,0,1-1.2,1.9,5.555,5.555,0,0,1-1.87,1.309A6.041,6.041,0,0,1,92.048.22ZM88.616-5.72a4.194,4.194,0,0,0,.462,1.98A3.65,3.65,0,0,0,90.31-2.354a3.094,3.094,0,0,0,1.738.506,3.062,3.062,0,0,0,1.727-.517,3.684,3.684,0,0,0,1.243-1.408,4.213,4.213,0,0,0,.462-1.969,4.194,4.194,0,0,0-.462-1.98,3.7,3.7,0,0,0-1.243-1.4,3.062,3.062,0,0,0-1.727-.517,3,3,0,0,0-1.738.528,3.856,3.856,0,0,0-1.232,1.4A4.177,4.177,0,0,0,88.616-5.72Zm17.974-3.7a5.151,5.151,0,0,0-2.5.638,3.472,3.472,0,0,0-1.551,1.738V0h-2.42V-11.506h2.244v2.574a5.214,5.214,0,0,1,1.562-1.9,3.792,3.792,0,0,1,2.046-.781h.363a1.3,1.3,0,0,1,.253.022ZM113.366.22a6.041,6.041,0,0,1-2.431-.473,5.754,5.754,0,0,1-1.881-1.3,5.866,5.866,0,0,1-1.221-1.892A6.046,6.046,0,0,1,107.4-5.72a6.058,6.058,0,0,1,.748-2.981,5.836,5.836,0,0,1,2.09-2.178,5.886,5.886,0,0,1,3.146-.825,5.717,5.717,0,0,1,3.113.825,5.77,5.77,0,0,1,2.035,2.167,5.964,5.964,0,0,1,.726,2.882q0,.264-.022.495t-.044.385h-9.218a3.613,3.613,0,0,0,.561,1.771A3.565,3.565,0,0,0,111.8-1.991a3.337,3.337,0,0,0,1.65.429,3.72,3.72,0,0,0,1.837-.484,2.5,2.5,0,0,0,1.177-1.276l2.068.594A4.416,4.416,0,0,1,117.4-1.221,5.655,5.655,0,0,1,115.61-.165,6.381,6.381,0,0,1,113.366.22Zm-3.454-6.776h6.952a3.579,3.579,0,0,0-.561-1.749,3.6,3.6,0,0,0-1.254-1.188,3.361,3.361,0,0,0-1.683-.429,3.318,3.318,0,0,0-1.661.429,3.5,3.5,0,0,0-1.243,1.188A3.647,3.647,0,0,0,109.912-6.556Z" transform="translate(48 38)"/>
</svg>
