<svg xmlns="http://www.w3.org/2000/svg" viewBox="0 0 358 110">
  <defs>
    <style>
      .cls-1 {
        fill: #fff;
        stroke: #ffb3b3;
      }

      .cls-1, .cls-2 {
        stroke-miterlimit: 10;
      }

      .cls-2 {
        fill: none;
        stroke: #ccc;
        stroke-width: 3px;
      }
    </style>
  </defs>
  <g id="exercise-1-anshul-kaushal" transform="translate(-53.5 -44.5)">
    <g id="Group_1" data-name="Group 1" transform="translate(57.408 46.169)">
      <path id="Path_1" data-name="Path 1" class="cls-1" d="M81.882,79.134H74.948L69.8,86.55h32.07L84.651,60.45a8.808,8.808,0,0,0-2.215-2.311A5.383,5.383,0,0,0,79.21,57.2a5.516,5.516,0,0,0-3.347.987,9.636,9.636,0,0,0-2.191,2.239L56,86.55H66.088L79.041,67.384l4.936,7.632c.457.7.963,1.421,1.469,2.215s.963,1.445,1.348,1.974c-.65-.048-1.445-.1-2.335-.1C83.568,79.134,82.7,79.134,81.882,79.134Z" transform="translate(-56 -30.403)"/>
      <path id="Path_2" data-name="Path 2" class="cls-1" d="M84.037,85.267l16.9,15.867a5.28,5.28,0,0,0,1.782,1.276,4.789,4.789,0,0,0,1.637.289,5.054,5.054,0,0,0,1.782-.313,3.637,3.637,0,0,0,1.493-.963,4.772,4.772,0,0,0,1.035-1.709,6.922,6.922,0,0,0,.385-2.456V46.07h-7.8V90.323L84.35,74.456a5.9,5.9,0,0,0-1.83-1.276,4.623,4.623,0,0,0-1.589-.289,4.924,4.924,0,0,0-1.758.313,4.235,4.235,0,0,0-1.493.939,4.661,4.661,0,0,0-1.035,1.685,6.922,6.922,0,0,0-.385,2.456v23.932h7.753V85.267Z" transform="translate(-27.481 -46.07)"/>
      <path id="Path_3" data-name="Path 3" class="cls-1" d="M117.64,78.866H96.79L91.3,86.282h25.69a19.383,19.383,0,0,0,5.369-.65,10.184,10.184,0,0,0,3.684-1.854,6.893,6.893,0,0,0,2.095-2.986,11.458,11.458,0,0,0,.65-3.973,6.9,6.9,0,0,0-2.648-5.923c-1.758-1.3-4.334-1.974-7.7-1.974h-15a4.166,4.166,0,0,1-2.215-.457A1.707,1.707,0,0,1,100.5,66.9a1.681,1.681,0,0,1,.722-1.565,4.44,4.44,0,0,1,2.215-.433h19.117l5.489-7.512H104.085a19.384,19.384,0,0,0-5.369.65,10.2,10.2,0,0,0-3.66,1.806,7.1,7.1,0,0,0-2.095,2.817,9.559,9.559,0,0,0-.674,3.684,9.157,9.157,0,0,0,.626,3.395,6.349,6.349,0,0,0,1.9,2.6,9.093,9.093,0,0,0,3.226,1.685,15.493,15.493,0,0,0,4.623.6h15a4.028,4.028,0,0,1,2.215.482,1.792,1.792,0,0,1,.7,1.589,1.867,1.867,0,0,1-.7,1.613A3.525,3.525,0,0,1,117.64,78.866Z" transform="translate(-6.309 -30.135)"/>
      <path id="Path_4" data-name="Path 4" class="cls-1" d="M117.031,75.13h16.4V86.254h8.5V57.41h-8.5V67.619h-16.4V57.41H108.46V86.254h8.571Z" transform="translate(17.846 -30.107)"/>
      <path id="Path_5" data-name="Path 5" class="cls-1" d="M128.9,83.475a16.76,16.76,0,0,0,5.923,2.456,38.474,38.474,0,0,0,8.571.819q17.191,0,17.191-13.074V57.4H152.01V73.676a7,7,0,0,1-.433,2.6,3.889,3.889,0,0,1-1.421,1.758,6.553,6.553,0,0,1-2.648.987,24.305,24.305,0,0,1-4.117.313,40.561,40.561,0,0,1-5.369-.289,9.226,9.226,0,0,1-3.2-.939,3.489,3.489,0,0,1-1.541-1.758,7.8,7.8,0,0,1-.409-2.673V57.4h-8.5V73.676a13.868,13.868,0,0,0,1.083,5.706A10.42,10.42,0,0,0,128.9,83.475Z" transform="translate(40.243 -30.121)"/>
      <path id="Path_6" data-name="Path 6" class="cls-1" d="M279.37,87.175l5.514-7.416-40.93-.024,4.286-22.945h-8.5L235.5,79.735l-85.545-.024V58.283H141.41V87.127l92.719.024-6.693,36.091H251.8l6.814-7.416h-21.4l5.345-28.675Z" transform="translate(64.229 -30.98)"/>
      <path id="Path_7" data-name="Path 7" class="cls-1" d="M97.569,88.16c-.987-.867-1.806-1.589-2.5-2.167.506-.289.987-.578,1.493-.915s1.059-.674,1.661-1.083c.626-.409,1.324-.867,2.119-1.421s1.709-1.18,2.769-1.9l11.918-8.282H102.674l-9.149,7.03c-1.421,1.083-2.6,2.022-3.515,2.793s-1.685,1.4-2.335,1.926c.144-.746.313-1.565.506-2.408.193-.867.361-1.734.53-2.624l1.108-6.693H80.692L73.3,114.789h9.173L86.35,93l.578-4.141c.361.482.867,1.083,1.493,1.806.65.722,1.565,1.734,2.793,3.01l7.054,7.584h12.905l-9.823-9.534C99.808,90.231,98.556,89.027,97.569,88.16Z" transform="translate(-31.647 -9.02)"/>
      <path id="Path_8" data-name="Path 8" class="cls-1" d="M120.527,73.139a4.665,4.665,0,0,0-3.082-.939,6.326,6.326,0,0,0-3.515.987,12.8,12.8,0,0,0-2.552,2.239L89.3,101.55H99.388l16.155-19.165,3.66,7.632c.337.7.7,1.421,1.083,2.215s.722,1.445,1.035,1.974c-.65-.048-1.421-.1-2.311-.1h-9.486l-6.428,7.416h32.07l-12.809-26.1A7.752,7.752,0,0,0,120.527,73.139Z" transform="translate(-9.125 -9.288)"/>
      <path id="Path_9" data-name="Path 9" class="cls-1" d="M139.506,72.424,136.737,88.7a8.1,8.1,0,0,1-.843,2.576,4.779,4.779,0,0,1-1.709,1.758,7.9,7.9,0,0,1-2.817.987,25.236,25.236,0,0,1-4.189.313,41.54,41.54,0,0,1-4.695-.217,10.3,10.3,0,0,1-2.961-.7,3.009,3.009,0,0,1-1.565-1.252,3.651,3.651,0,0,1-.457-1.9,13.793,13.793,0,0,1,.12-1.589L120.413,72.4H111.89l-2.769,16.276a15.417,15.417,0,0,0-.241,2.721,8.633,8.633,0,0,0,4.093,7.777c2.745,1.734,7.054,2.576,12.953,2.576q17.155,0,19.382-13.074L148.077,72.4h-8.571Z" transform="translate(18.438 -9.006)"/>
      <path id="Path_10" data-name="Path 10" class="cls-1" d="M161.4,85.58c-1.541-1.108-3.828-1.661-6.814-1.661h-15c-1.758,0-2.648-.554-2.648-1.637a2.09,2.09,0,0,1,.77-1.83,4.5,4.5,0,0,1,2.5-.53h19.117L166.1,72.41H142.142a22.026,22.026,0,0,0-6.188.77,11.471,11.471,0,0,0-4.189,2.167,8.212,8.212,0,0,0-2.36,3.274,10.73,10.73,0,0,0-.746,4.069,6.361,6.361,0,0,0,2.191,5.056c1.445,1.276,3.756,1.9,6.886,1.9h15.048q2.6,0,2.6,1.734a2.176,2.176,0,0,1-.795,1.854,4.078,4.078,0,0,1-2.5.6h-20.9l-6.717,7.416h25.69a21.233,21.233,0,0,0,6.236-.795,11.312,11.312,0,0,0,4.213-2.239,8.263,8.263,0,0,0,2.359-3.443,12.558,12.558,0,0,0,.746-4.31A5.532,5.532,0,0,0,161.4,85.58Z" transform="translate(40.383 -8.992)"/>
      <path id="Path_11" data-name="Path 11" class="cls-1" d="M171.485,72.41l-1.734,10.209H153.307l1.782-10.209h-8.547l-4.912,28.844h8.6l1.854-11.123h16.444l-1.9,11.123h8.5l4.888-28.844Z" transform="translate(64.539 -8.992)"/>
      <path id="Path_12" data-name="Path 12" class="cls-1" d="M188.048,73.139a4.641,4.641,0,0,0-3.058-.939,6.327,6.327,0,0,0-3.515.987,11.517,11.517,0,0,0-2.552,2.239l-22.1,26.1h10.088L183.064,82.36l3.66,7.632c.337.7.674,1.421,1.059,2.215s.722,1.445,1.035,1.974c-.65-.048-1.421-.1-2.311-.1H177.02l-6.428,7.416h32.07L189.853,75.4A7.15,7.15,0,0,0,188.048,73.139Z" transform="translate(85.921 -9.288)"/>
    </g>
    <g id="Group_2" data-name="Group 2" transform="translate(55 46)">
      <path id="Path_13" data-name="Path 13" class="cls-2" d="M380.036,151.938H83.892A28.977,28.977,0,0,1,55,123.046V74.892A28.977,28.977,0,0,1,83.892,46H380.036a28.977,28.977,0,0,1,28.892,28.892v48.153A28.977,28.977,0,0,1,380.036,151.938Z" transform="translate(-55 -46)"/>
    </g>
  </g>
</svg>
