<svg xmlns="http://www.w3.org/2000/svg" xmlns:xlink="http://www.w3.org/1999/xlink" width="151" height="55" viewBox="0 0 151 55">
  <defs>
    <filter id="Rectangle_73" x="0" y="0" width="151" height="55" filterUnits="userSpaceOnUse">
      <feOffset dy="3" input="SourceAlpha"/>
      <feGaussianBlur stdDeviation="3" result="blur"/>
      <feFlood flood-opacity="0.161"/>
      <feComposite operator="in" in2="blur"/>
      <feComposite in="SourceGraphic"/>
    </filter>
  </defs>
  <g id="remove" transform="translate(-112 -362)">
    <g transform="matrix(1, 0, 0, 1, 112, 362)" filter="url(#Rectangle_73)">
      <g id="Rectangle_73-2" data-name="Rectangle 73" transform="translate(9 6)" fill="#f1ece6" stroke="#ad0e6c" stroke-width="1">
        <rect width="133" height="37" rx="9" stroke="none"/>
        <rect x="0.5" y="0.5" width="132" height="36" rx="8.5" fill="none"/>
      </g>
    </g>
    <path id="Path_122" data-name="Path 122" d="M1.28,0V-11.36H6.224a3.1,3.1,0,0,1,1.408.32,3.692,3.692,0,0,1,1.112.848A4.01,4.01,0,0,1,9.48-9.008a3.57,3.57,0,0,1,.264,1.344,3.881,3.881,0,0,1-.272,1.44A3.385,3.385,0,0,1,8.7-5.04a3.014,3.014,0,0,1-1.176.72L10.192,0H8.176L5.712-3.952H3.072V0ZM3.072-5.536H6.208a1.428,1.428,0,0,0,.88-.288A1.979,1.979,0,0,0,7.7-6.6,2.52,2.52,0,0,0,7.92-7.664a2.2,2.2,0,0,0-.256-1.064A2.191,2.191,0,0,0,7-9.488a1.508,1.508,0,0,0-.888-.288H3.072ZM19.648-1.584V0H11.856V-11.36H19.5v1.584H13.648v3.232H18.72v1.488H13.648v3.472ZM31.056,0V-8.1L27.712-1.952H26.656L23.3-8.1V0H21.5V-11.36h1.92l3.76,6.944,3.76-6.944h1.92V0Zm9.088.08A5.04,5.04,0,0,1,37.92-.4a5.336,5.336,0,0,1-1.712-1.3A6.077,6.077,0,0,1,35.1-3.56,5.923,5.923,0,0,1,34.7-5.68a5.745,5.745,0,0,1,.416-2.168,6.089,6.089,0,0,1,1.152-1.84,5.5,5.5,0,0,1,1.736-1.28,5.015,5.015,0,0,1,2.168-.472,4.918,4.918,0,0,1,2.216.5A5.366,5.366,0,0,1,44.1-9.616a6.3,6.3,0,0,1,1.1,1.856,5.817,5.817,0,0,1,.392,2.1A5.843,5.843,0,0,1,45.192-3.5a5.964,5.964,0,0,1-1.144,1.84A5.4,5.4,0,0,1,42.312-.384,5.087,5.087,0,0,1,40.144.08ZM36.528-5.68a4.783,4.783,0,0,0,.256,1.552,4.319,4.319,0,0,0,.728,1.336,3.422,3.422,0,0,0,1.144.92,3.316,3.316,0,0,0,1.5.336A3.261,3.261,0,0,0,41.7-1.888a3.354,3.354,0,0,0,1.128-.952,4.471,4.471,0,0,0,.7-1.344,4.847,4.847,0,0,0,.24-1.5,4.85,4.85,0,0,0-.248-1.544,4.125,4.125,0,0,0-.728-1.328,3.531,3.531,0,0,0-1.144-.92,3.231,3.231,0,0,0-1.48-.336,3.261,3.261,0,0,0-1.536.352,3.475,3.475,0,0,0-1.136.944,4.425,4.425,0,0,0-.712,1.328A4.68,4.68,0,0,0,36.528-5.68Zm11.216-5.68,3.424,9.168,3.408-9.168h1.9L52.016,0h-1.7L45.84-11.36Zm17.92,9.776V0H57.872V-11.36H65.52v1.584H59.664v3.232h5.072v1.488H59.664v3.472Z" transform="translate(155 392)" fill="#ad0e6c"/>
  </g>
</svg>
